<?xml version="1.0" encoding="UTF-8"?>
<svg id="Layer_2" data-name="Layer 2" xmlns="http://www.w3.org/2000/svg" viewBox="0 0 20 20">
  <defs>
    <style>
      .cls-1 {
        fill: none;
        stroke: #fff;
        stroke-linecap: round;
        stroke-linejoin: round;
        stroke-width: 2px;
      }
    </style>
  </defs>
  <g id="Layer_1-2" data-name="Layer 1">
    <g>
      <path class="cls-1" d="M1,16v-6C1,5.03,5.03,1,10,1s9,4.03,9,9v6"/>
      <path class="cls-1" d="M19,17c0,1.1-.9,2-2,2h-1c-1.1,0-2-.9-2-2v-3c0-1.1.9-2,2-2h3v5ZM1,17c0,1.1.9,2,2,2h1c1.1,0,2-.9,2-2v-3c0-1.1-.9-2-2-2H1v5Z"/>
    </g>
  </g>
</svg>